<?xml version="1.0" encoding="UTF-8"?>
<svg width="145px" height="120px" viewBox="0 0 145 120" version="1.1" xmlns="http://www.w3.org/2000/svg" xmlns:xlink="http://www.w3.org/1999/xlink">
    <!-- Generator: Sketch 52.3 (67297) - http://www.bohemiancoding.com/sketch -->
    <title>one-to-many</title>
    <desc>Created with Sketch.</desc>
    <g id="Page-1" stroke="none" stroke-width="1" fill="none" fill-rule="evenodd">
        <g id="Group-2">
            <path id="Line-2-Copy" d="M105.5,49.5 L34,49.5 L33.5,49.5 L33.5,48.5 L34,48.5 L105.5,48.5 L105.5,44.5 L114.5,49 L105.5,53.5 L105.5,49.5 Z" fill="#979797" fill-rule="nonzero"></path>
            <path id="Line-2-Copy-2" d="M106.216764,22.4527138 L34.1755617,49.4681646 L33.7073971,49.6437263 L33.3562737,48.7073971 L33.8244383,48.5318354 L105.86564,21.5163847 L104.461147,17.771068 L114.468165,18.8244383 L107.621257,26.1980306 L106.216764,22.4527138 Z" fill="#979797" fill-rule="nonzero"></path>
            <path id="Line-2-Copy-3" d="M105.86564,76.4836153 L33.8244383,49.4681646 L33.3562737,49.2926029 L33.7073971,48.3562737 L34.1755617,48.5318354 L106.216764,75.5472862 L107.621257,71.8019694 L114.468165,79.1755617 L104.461147,80.228932 L105.86564,76.4836153 Z" fill="#979797" fill-rule="nonzero"></path>
            <circle id="Oval-Copy-3" stroke="#BD10E0" stroke-width="3" fill="#FFFFFF" cx="24" cy="49" r="8"></circle>
            <circle id="Oval-Copy-2" stroke="#BD10E0" stroke-width="3" fill="#FFFFFF" cx="124" cy="79" r="8"></circle>
            <circle id="Oval-Copy-4" stroke="#BD10E0" stroke-width="3" fill="#FFFFFF" cx="124" cy="49" r="8"></circle>
            <circle id="Oval-Copy-5" stroke="#BD10E0" stroke-width="3" fill="#FFFFFF" cx="124" cy="19" r="8"></circle>
            <path d="M4.88232422,74.2587891 L6.54541016,74.2587891 L6.54541016,75.2490234 C6.76123155,74.9104801 7.05322082,74.6354177 7.42138672,74.4238281 C7.78955262,74.2122385 8.19791442,74.1064453 8.64648438,74.1064453 C9.42936589,74.1064453 10.0937473,74.4132456 10.6396484,75.0268555 C11.1855496,75.6404653 11.4584961,76.4952745 11.4584961,77.5913086 C11.4584961,78.7169653 11.1834337,79.5918751 10.6333008,80.2160645 C10.0831678,80.8402538 9.41667058,81.1523438 8.63378906,81.1523438 C8.26139137,81.1523438 7.92391102,81.0782885 7.62133789,80.9301758 C7.31876476,80.7820631 7.00032719,80.5281594 6.66601562,80.168457 L6.66601562,83.5644531 L4.88232422,83.5644531 L4.88232422,74.2587891 Z M6.64697266,77.5151367 C6.64697266,78.2726275 6.79719902,78.8322736 7.09765625,79.1940918 C7.39811348,79.55591 7.764158,79.7368164 8.19580078,79.7368164 C8.6105164,79.7368164 8.95540227,79.5707211 9.23046875,79.2385254 C9.50553523,78.9063297 9.64306641,78.3614947 9.64306641,77.6040039 C9.64306641,76.8972946 9.5013035,76.3725603 9.21777344,76.0297852 C8.93424337,75.68701 8.58300991,75.515625 8.1640625,75.515625 C7.72818792,75.515625 7.36637514,75.6838362 7.07861328,76.0202637 C6.79085143,76.3566911 6.64697266,76.8549772 6.64697266,77.5151367 Z M14.2070312,76.3154297 L12.5883789,76.0234375 C12.770346,75.3717415 13.0834939,74.8893245 13.527832,74.5761719 C13.9721702,74.2630193 14.6323198,74.1064453 15.5083008,74.1064453 C16.3038777,74.1064453 16.8963197,74.2006013 17.2856445,74.388916 C17.6749694,74.5772308 17.9489738,74.8163234 18.107666,75.1062012 C18.2663582,75.3960789 18.3457031,75.9282188 18.3457031,76.7026367 L18.3266602,78.784668 C18.3266602,79.3771188 18.3552243,79.8140448 18.4123535,80.095459 C18.4694827,80.3768732 18.5763339,80.6783838 18.7329102,81 L16.9682617,81 C16.921712,80.8815098 16.8645837,80.7058931 16.796875,80.4731445 C16.7672525,80.3673497 16.7460938,80.2975262 16.7333984,80.2636719 C16.4287094,80.5598973 16.1028663,80.7820631 15.7558594,80.9301758 C15.4088524,81.0782885 15.0385762,81.1523438 14.6450195,81.1523438 C13.9510056,81.1523438 13.4040547,80.9640318 13.0041504,80.5874023 C12.604246,80.2107729 12.4042969,79.7347034 12.4042969,79.1591797 C12.4042969,78.7783184 12.495279,78.4387222 12.6772461,78.1403809 C12.8592131,77.8420395 13.1141748,77.6135262 13.4421387,77.454834 C13.7701026,77.2961418 14.2429982,77.1575527 14.8608398,77.0390625 C15.6945029,76.8824862 16.2721338,76.7364916 16.59375,76.6010742 L16.59375,76.4233398 C16.59375,76.0805647 16.5091154,75.8361824 16.3398438,75.6901855 C16.1705721,75.5441887 15.8510766,75.4711914 15.3813477,75.4711914 C15.0639633,75.4711914 14.8164071,75.5336094 14.6386719,75.6584473 C14.4609366,75.7832851 14.3170578,76.0022771 14.2070312,76.3154297 Z M16.59375,77.7626953 C16.3652332,77.8388676 16.0034204,77.9298497 15.5083008,78.0356445 C15.0131811,78.1414393 14.6894539,78.2451167 14.5371094,78.3466797 C14.3043608,78.5117196 14.1879883,78.7211901 14.1879883,78.9750977 C14.1879883,79.2247734 14.2810863,79.4405915 14.4672852,79.6225586 C14.653484,79.8045256 14.8904608,79.8955078 15.1782227,79.8955078 C15.4998388,79.8955078 15.8066392,79.7897146 16.0986328,79.578125 C16.3144542,79.4173169 16.4562171,79.2205415 16.5239258,78.987793 C16.5704755,78.8354485 16.59375,78.5455751 16.59375,78.1181641 L16.59375,77.7626953 Z M21.8115234,81 L20.027832,81 L20.027832,74.2587891 L21.6845703,74.2587891 L21.6845703,75.2172852 C21.9681004,74.7644834 22.223062,74.4661466 22.4494629,74.3222656 C22.6758638,74.1783847 22.9329413,74.1064453 23.2207031,74.1064453 C23.6269552,74.1064453 24.01839,74.2185861 24.3950195,74.4428711 L23.8427734,75.9980469 C23.5423162,75.8033844 23.2630221,75.7060547 23.0048828,75.7060547 C22.7552071,75.7060547 22.5436207,75.7748203 22.3701172,75.9123535 C22.1966137,76.0498868 22.0601405,76.2985008 21.9606934,76.6582031 C21.8612462,77.0179054 21.8115234,77.7711531 21.8115234,78.9179688 L21.8115234,81 Z M29.0668945,78.8544922 L30.8442383,79.152832 C30.6157215,79.804528 30.2549667,80.3006982 29.7619629,80.6413574 C29.2689591,80.9820167 28.6521847,81.1523438 27.9116211,81.1523438 C26.7394147,81.1523438 25.8719104,80.7693723 25.309082,80.003418 C24.8647439,79.3898081 24.6425781,78.6154018 24.6425781,77.6801758 C24.6425781,76.5629827 24.9345674,75.6880728 25.5185547,75.0554199 C26.102542,74.422767 26.8409786,74.1064453 27.7338867,74.1064453 C28.7368214,74.1064453 29.5281547,74.4375781 30.1079102,75.0998535 C30.6876657,75.762129 30.9648439,76.7766859 30.9394531,78.1435547 L26.4707031,78.1435547 C26.4833985,78.6725287 26.6272773,79.0840643 26.9023438,79.3781738 C27.1774102,79.6722834 27.5201802,79.8193359 27.9306641,79.8193359 C28.2099623,79.8193359 28.4448233,79.7431648 28.6352539,79.5908203 C28.8256845,79.4384758 28.9695633,79.1930355 29.0668945,78.8544922 Z M29.168457,77.0517578 C29.1557617,76.5354792 29.0224622,76.1429864 28.7685547,75.8742676 C28.5146472,75.6055488 28.205731,75.4711914 27.8417969,75.4711914 C27.452472,75.4711914 27.1308606,75.6129543 26.8769531,75.8964844 C26.6230456,76.1800144 26.4982096,76.5651017 26.5024414,77.0517578 L29.168457,77.0517578 Z M38.5249023,81 L36.7412109,81 L36.7412109,77.5595703 C36.7412109,76.8317021 36.7031254,76.3609223 36.6269531,76.1472168 C36.5507809,75.9335113 36.4270028,75.767416 36.2556152,75.6489258 C36.0842277,75.5304356 35.8779309,75.4711914 35.6367188,75.4711914 C35.3277979,75.4711914 35.0506197,75.555826 34.8051758,75.7250977 C34.5597318,75.8943693 34.3915206,76.1186509 34.3005371,76.3979492 C34.2095536,76.6772475 34.1640625,77.1935184 34.1640625,77.9467773 L34.1640625,81 L32.3803711,81 L32.3803711,74.2587891 L34.0371094,74.2587891 L34.0371094,75.2490234 C34.6253285,74.4873009 35.365881,74.1064453 36.2587891,74.1064453 C36.6523457,74.1064453 37.0120426,74.1773268 37.3378906,74.3190918 C37.6637386,74.4608568 37.9102368,74.6417632 38.0773926,74.8618164 C38.2445484,75.0818696 38.3609209,75.3315416 38.4265137,75.6108398 C38.4921064,75.8901381 38.5249023,76.2900365 38.5249023,76.8105469 L38.5249023,81 Z M43.425293,74.2587891 L43.425293,75.6806641 L42.206543,75.6806641 L42.206543,78.3974609 C42.206543,78.9475939 42.2181802,79.2681473 42.2414551,79.3591309 C42.2647299,79.4501144 42.3176265,79.5252276 42.4001465,79.5844727 C42.4826664,79.6437177 42.58317,79.6733398 42.7016602,79.6733398 C42.8667,79.6733398 43.1057927,79.6162115 43.4189453,79.5019531 L43.5712891,80.8857422 C43.1565734,81.0634775 42.6868516,81.1523438 42.1621094,81.1523438 C41.8404932,81.1523438 41.5506198,81.0983892 41.2924805,80.9904785 C41.0343412,80.8825678 40.8449713,80.7429208 40.7243652,80.5715332 C40.6037592,80.4001456 40.5201825,80.1684585 40.4736328,79.8764648 C40.4355467,79.669107 40.4165039,79.2501659 40.4165039,78.6196289 L40.4165039,75.6806641 L39.5976562,75.6806641 L39.5976562,74.2587891 L40.4165039,74.2587891 L40.4165039,72.9194336 L42.206543,71.878418 L42.206543,74.2587891 L43.425293,74.2587891 Z" id="parent" fill="#004B93"></path>
            <path d="M115.811035,106.251953 L114.052734,106.569336 C113.993489,106.218097 113.859132,105.953614 113.649658,105.775879 C113.440184,105.598144 113.168296,105.509277 112.833984,105.509277 C112.389646,105.509277 112.035239,105.662678 111.770752,105.969482 C111.506265,106.276287 111.374023,106.789384 111.374023,107.508789 C111.374023,108.308598 111.508381,108.873534 111.7771,109.203613 C112.045818,109.533693 112.406573,109.69873 112.859375,109.69873 C113.197918,109.69873 113.475097,109.602459 113.690918,109.409912 C113.906739,109.217366 114.059082,108.886233 114.147949,108.416504 L115.899902,108.714844 C115.717935,109.518884 115.368818,110.126137 114.852539,110.536621 C114.33626,110.947105 113.644373,111.152344 112.776855,111.152344 C111.790848,111.152344 111.004804,110.841312 110.418701,110.219238 C109.832598,109.597165 109.539551,108.736008 109.539551,107.635742 C109.539551,106.522781 109.833656,105.656334 110.421875,105.036377 C111.010094,104.416419 111.805659,104.106445 112.808594,104.106445 C113.629561,104.106445 114.282306,104.28312 114.766846,104.636475 C115.251386,104.989829 115.599446,105.528317 115.811035,106.251953 Z M118.94043,101.694336 L118.94043,105.115723 C119.515953,104.442868 120.203609,104.106445 121.003418,104.106445 C121.413902,104.106445 121.784178,104.182616 122.114258,104.334961 C122.444338,104.487305 122.692952,104.681965 122.860107,104.918945 C123.027263,105.155926 123.14152,105.418293 123.202881,105.706055 C123.264242,105.993817 123.294922,106.440264 123.294922,107.04541 L123.294922,111 L121.51123,111 L121.51123,107.438965 C121.51123,106.732256 121.477377,106.283692 121.409668,106.093262 C121.341959,105.902831 121.222413,105.751547 121.051025,105.639404 C120.879638,105.527262 120.664878,105.471191 120.406738,105.471191 C120.110513,105.471191 119.84603,105.543131 119.613281,105.687012 C119.380533,105.830893 119.210206,106.047769 119.102295,106.337646 C118.994384,106.627524 118.94043,107.055987 118.94043,107.623047 L118.94043,111 L117.156738,111 L117.156738,101.694336 L118.94043,101.694336 Z M125.104004,103.344727 L125.104004,101.694336 L126.887695,101.694336 L126.887695,103.344727 L125.104004,103.344727 Z M125.104004,111 L125.104004,104.258789 L126.887695,104.258789 L126.887695,111 L125.104004,111 Z M128.71582,111 L128.71582,101.694336 L130.499512,101.694336 L130.499512,111 L128.71582,111 Z M138.510254,111 L136.853516,111 L136.853516,110.009766 C136.578449,110.394859 136.253664,110.681558 135.87915,110.869873 C135.504637,111.058188 135.126955,111.152344 134.746094,111.152344 C133.971676,111.152344 133.308352,110.840254 132.756104,110.216064 C132.203855,109.591875 131.927734,108.721197 131.927734,107.604004 C131.927734,106.46142 132.196449,105.592858 132.733887,104.998291 C133.271324,104.403724 133.950517,104.106445 134.771484,104.106445 C135.524743,104.106445 136.17643,104.419593 136.726562,105.045898 L136.726562,101.694336 L138.510254,101.694336 L138.510254,111 Z M133.749512,107.483398 C133.749512,108.202803 133.848957,108.723306 134.047852,109.044922 C134.335613,109.510419 134.737628,109.743164 135.253906,109.743164 C135.66439,109.743164 136.013508,109.568605 136.30127,109.219482 C136.589031,108.87036 136.73291,108.348799 136.73291,107.654785 C136.73291,106.880367 136.593263,106.322837 136.313965,105.982178 C136.034667,105.641518 135.677086,105.471191 135.241211,105.471191 C134.818032,105.471191 134.463624,105.639403 134.177979,105.97583 C133.892333,106.312258 133.749512,106.814775 133.749512,107.483398 Z" id="child" fill="#004B93"></path>
        </g>
    </g>
</svg>