<?xml version="1.0" encoding="UTF-8"?>
<svg width="145px" height="120px" viewBox="0 0 145 120" version="1.1" xmlns="http://www.w3.org/2000/svg" xmlns:xlink="http://www.w3.org/1999/xlink">
    <!-- Generator: Sketch 52.3 (67297) - http://www.bohemiancoding.com/sketch -->
    <title>many-to-many</title>
    <desc>Created with Sketch.</desc>
    <g id="Page-1" stroke="none" stroke-width="1" fill="none" fill-rule="evenodd">
        <g id="Group">
            <path id="Line-2-Copy-4" d="M105.5,50.5 L34,50.5 L33.5,50.5 L33.5,49.5 L34,49.5 L105.5,49.5 L105.5,45.5 L114.5,50 L105.5,54.5 L105.5,50.5 Z" fill="#979797" fill-rule="nonzero"></path>
            <path id="Line-2-Copy-5" d="M42.3583075,21.6244061 L107.889784,38.4068572 L108.882148,34.5319104 L116.484368,41.1240456 L106.649328,43.2505408 L107.641692,39.3755939 L42.1102164,22.5931428 L41.117852,26.4680896 L33.5156316,19.8759544 L43.350672,17.7494592 L42.3583075,21.6244061 Z" fill="#979797" fill-rule="nonzero"></path>
            <path id="Line-2-Copy-6" d="M42.5,79.5 L105.5,79.5 L105.5,75.5 L114.5,80 L105.5,84.5 L105.5,80.5 L42.5,80.5 L42.5,84.5 L33.5,80 L42.5,75.5 L42.5,79.5 Z" fill="#979797" fill-rule="nonzero"></path>
            <path id="Line-2-Copy-7" d="M42.4316085,55.6865823 L107.765657,68.8330676 L108.554719,64.9116673 L116.490175,71.0986328 L106.779329,73.7348181 L107.568391,69.8134177 L42.234343,56.6669324 L41.4452807,60.5883327 L33.509825,54.4013672 L43.2206708,51.7651819 L42.4316085,55.6865823 Z" fill="#979797" fill-rule="nonzero"></path>
            <path id="Line-2-Copy-8" d="M106.053309,23.0577938 L42.2503862,43.3949755 L43.4651669,47.2060524 L33.5236154,45.6518476 L40.7319102,38.6311292 L41.946691,42.4422062 L105.749614,22.1050245 L104.534833,18.2939476 L114.476385,19.8481524 L107.26809,26.8688708 L106.053309,23.0577938 Z" fill="#979797" fill-rule="nonzero"></path>
            <circle id="Oval-Copy-8" stroke="#BD10E0" stroke-width="3" fill="#FFFFFF" cx="124" cy="79" r="8"></circle>
            <circle id="Oval-Copy-7" stroke="#BD10E0" stroke-width="3" fill="#FFFFFF" cx="124" cy="49" r="8"></circle>
            <circle id="Oval-Copy-6" stroke="#BD10E0" stroke-width="3" fill="#FFFFFF" cx="124" cy="19" r="8"></circle>
            <circle id="Oval-Copy-11" stroke="#BD10E0" stroke-width="3" fill="#FFFFFF" cx="24" cy="79" r="8"></circle>
            <circle id="Oval-Copy-10" stroke="#BD10E0" stroke-width="3" fill="#FFFFFF" cx="24" cy="49" r="8"></circle>
            <circle id="Oval-Copy-9" stroke="#BD10E0" stroke-width="3" fill="#FFFFFF" cx="24" cy="19" r="8"></circle>
            <path d="M4.88232422,104.258789 L6.54541016,104.258789 L6.54541016,105.249023 C6.76123155,104.91048 7.05322082,104.635418 7.42138672,104.423828 C7.78955262,104.212239 8.19791442,104.106445 8.64648438,104.106445 C9.42936589,104.106445 10.0937473,104.413246 10.6396484,105.026855 C11.1855496,105.640465 11.4584961,106.495274 11.4584961,107.591309 C11.4584961,108.716965 11.1834337,109.591875 10.6333008,110.216064 C10.0831678,110.840254 9.41667058,111.152344 8.63378906,111.152344 C8.26139137,111.152344 7.92391102,111.078289 7.62133789,110.930176 C7.31876476,110.782063 7.00032719,110.528159 6.66601562,110.168457 L6.66601562,113.564453 L4.88232422,113.564453 L4.88232422,104.258789 Z M6.64697266,107.515137 C6.64697266,108.272627 6.79719902,108.832274 7.09765625,109.194092 C7.39811348,109.55591 7.764158,109.736816 8.19580078,109.736816 C8.6105164,109.736816 8.95540227,109.570721 9.23046875,109.238525 C9.50553523,108.90633 9.64306641,108.361495 9.64306641,107.604004 C9.64306641,106.897295 9.5013035,106.37256 9.21777344,106.029785 C8.93424337,105.68701 8.58300991,105.515625 8.1640625,105.515625 C7.72818792,105.515625 7.36637514,105.683836 7.07861328,106.020264 C6.79085143,106.356691 6.64697266,106.854977 6.64697266,107.515137 Z M14.2070312,106.31543 L12.5883789,106.023438 C12.770346,105.371742 13.0834939,104.889324 13.527832,104.576172 C13.9721702,104.263019 14.6323198,104.106445 15.5083008,104.106445 C16.3038777,104.106445 16.8963197,104.200601 17.2856445,104.388916 C17.6749694,104.577231 17.9489738,104.816323 18.107666,105.106201 C18.2663582,105.396079 18.3457031,105.928219 18.3457031,106.702637 L18.3266602,108.784668 C18.3266602,109.377119 18.3552243,109.814045 18.4123535,110.095459 C18.4694827,110.376873 18.5763339,110.678384 18.7329102,111 L16.9682617,111 C16.921712,110.88151 16.8645837,110.705893 16.796875,110.473145 C16.7672525,110.36735 16.7460938,110.297526 16.7333984,110.263672 C16.4287094,110.559897 16.1028663,110.782063 15.7558594,110.930176 C15.4088524,111.078289 15.0385762,111.152344 14.6450195,111.152344 C13.9510056,111.152344 13.4040547,110.964032 13.0041504,110.587402 C12.604246,110.210773 12.4042969,109.734703 12.4042969,109.15918 C12.4042969,108.778318 12.495279,108.438722 12.6772461,108.140381 C12.8592131,107.84204 13.1141748,107.613526 13.4421387,107.454834 C13.7701026,107.296142 14.2429982,107.157553 14.8608398,107.039062 C15.6945029,106.882486 16.2721338,106.736492 16.59375,106.601074 L16.59375,106.42334 C16.59375,106.080565 16.5091154,105.836182 16.3398438,105.690186 C16.1705721,105.544189 15.8510766,105.471191 15.3813477,105.471191 C15.0639633,105.471191 14.8164071,105.533609 14.6386719,105.658447 C14.4609366,105.783285 14.3170578,106.002277 14.2070312,106.31543 Z M16.59375,107.762695 C16.3652332,107.838868 16.0034204,107.92985 15.5083008,108.035645 C15.0131811,108.141439 14.6894539,108.245117 14.5371094,108.34668 C14.3043608,108.51172 14.1879883,108.72119 14.1879883,108.975098 C14.1879883,109.224773 14.2810863,109.440592 14.4672852,109.622559 C14.653484,109.804526 14.8904608,109.895508 15.1782227,109.895508 C15.4998388,109.895508 15.8066392,109.789715 16.0986328,109.578125 C16.3144542,109.417317 16.4562171,109.220542 16.5239258,108.987793 C16.5704755,108.835448 16.59375,108.545575 16.59375,108.118164 L16.59375,107.762695 Z M21.8115234,111 L20.027832,111 L20.027832,104.258789 L21.6845703,104.258789 L21.6845703,105.217285 C21.9681004,104.764483 22.223062,104.466147 22.4494629,104.322266 C22.6758638,104.178385 22.9329413,104.106445 23.2207031,104.106445 C23.6269552,104.106445 24.01839,104.218586 24.3950195,104.442871 L23.8427734,105.998047 C23.5423162,105.803384 23.2630221,105.706055 23.0048828,105.706055 C22.7552071,105.706055 22.5436207,105.77482 22.3701172,105.912354 C22.1966137,106.049887 22.0601405,106.298501 21.9606934,106.658203 C21.8612462,107.017905 21.8115234,107.771153 21.8115234,108.917969 L21.8115234,111 Z M29.0668945,108.854492 L30.8442383,109.152832 C30.6157215,109.804528 30.2549667,110.300698 29.7619629,110.641357 C29.2689591,110.982017 28.6521847,111.152344 27.9116211,111.152344 C26.7394147,111.152344 25.8719104,110.769372 25.309082,110.003418 C24.8647439,109.389808 24.6425781,108.615402 24.6425781,107.680176 C24.6425781,106.562983 24.9345674,105.688073 25.5185547,105.05542 C26.102542,104.422767 26.8409786,104.106445 27.7338867,104.106445 C28.7368214,104.106445 29.5281547,104.437578 30.1079102,105.099854 C30.6876657,105.762129 30.9648439,106.776686 30.9394531,108.143555 L26.4707031,108.143555 C26.4833985,108.672529 26.6272773,109.084064 26.9023438,109.378174 C27.1774102,109.672283 27.5201802,109.819336 27.9306641,109.819336 C28.2099623,109.819336 28.4448233,109.743165 28.6352539,109.59082 C28.8256845,109.438476 28.9695633,109.193036 29.0668945,108.854492 Z M29.168457,107.051758 C29.1557617,106.535479 29.0224622,106.142986 28.7685547,105.874268 C28.5146472,105.605549 28.205731,105.471191 27.8417969,105.471191 C27.452472,105.471191 27.1308606,105.612954 26.8769531,105.896484 C26.6230456,106.180014 26.4982096,106.565102 26.5024414,107.051758 L29.168457,107.051758 Z M38.5249023,111 L36.7412109,111 L36.7412109,107.55957 C36.7412109,106.831702 36.7031254,106.360922 36.6269531,106.147217 C36.5507809,105.933511 36.4270028,105.767416 36.2556152,105.648926 C36.0842277,105.530436 35.8779309,105.471191 35.6367188,105.471191 C35.3277979,105.471191 35.0506197,105.555826 34.8051758,105.725098 C34.5597318,105.894369 34.3915206,106.118651 34.3005371,106.397949 C34.2095536,106.677247 34.1640625,107.193518 34.1640625,107.946777 L34.1640625,111 L32.3803711,111 L32.3803711,104.258789 L34.0371094,104.258789 L34.0371094,105.249023 C34.6253285,104.487301 35.365881,104.106445 36.2587891,104.106445 C36.6523457,104.106445 37.0120426,104.177327 37.3378906,104.319092 C37.6637386,104.460857 37.9102368,104.641763 38.0773926,104.861816 C38.2445484,105.08187 38.3609209,105.331542 38.4265137,105.61084 C38.4921064,105.890138 38.5249023,106.290036 38.5249023,106.810547 L38.5249023,111 Z M43.425293,104.258789 L43.425293,105.680664 L42.206543,105.680664 L42.206543,108.397461 C42.206543,108.947594 42.2181802,109.268147 42.2414551,109.359131 C42.2647299,109.450114 42.3176265,109.525228 42.4001465,109.584473 C42.4826664,109.643718 42.58317,109.67334 42.7016602,109.67334 C42.8667,109.67334 43.1057927,109.616212 43.4189453,109.501953 L43.5712891,110.885742 C43.1565734,111.063477 42.6868516,111.152344 42.1621094,111.152344 C41.8404932,111.152344 41.5506198,111.098389 41.2924805,110.990479 C41.0343412,110.882568 40.8449713,110.742921 40.7243652,110.571533 C40.6037592,110.400146 40.5201825,110.168458 40.4736328,109.876465 C40.4355467,109.669107 40.4165039,109.250166 40.4165039,108.619629 L40.4165039,105.680664 L39.5976562,105.680664 L39.5976562,104.258789 L40.4165039,104.258789 L40.4165039,102.919434 L42.206543,101.878418 L42.206543,104.258789 L43.425293,104.258789 Z" id="parent-copy" fill="#004B93"></path>
            <path d="M115.811035,106.251953 L114.052734,106.569336 C113.993489,106.218097 113.859132,105.953614 113.649658,105.775879 C113.440184,105.598144 113.168296,105.509277 112.833984,105.509277 C112.389646,105.509277 112.035239,105.662678 111.770752,105.969482 C111.506265,106.276287 111.374023,106.789384 111.374023,107.508789 C111.374023,108.308598 111.508381,108.873534 111.7771,109.203613 C112.045818,109.533693 112.406573,109.69873 112.859375,109.69873 C113.197918,109.69873 113.475097,109.602459 113.690918,109.409912 C113.906739,109.217366 114.059082,108.886233 114.147949,108.416504 L115.899902,108.714844 C115.717935,109.518884 115.368818,110.126137 114.852539,110.536621 C114.33626,110.947105 113.644373,111.152344 112.776855,111.152344 C111.790848,111.152344 111.004804,110.841312 110.418701,110.219238 C109.832598,109.597165 109.539551,108.736008 109.539551,107.635742 C109.539551,106.522781 109.833656,105.656334 110.421875,105.036377 C111.010094,104.416419 111.805659,104.106445 112.808594,104.106445 C113.629561,104.106445 114.282306,104.28312 114.766846,104.636475 C115.251386,104.989829 115.599446,105.528317 115.811035,106.251953 Z M118.94043,101.694336 L118.94043,105.115723 C119.515953,104.442868 120.203609,104.106445 121.003418,104.106445 C121.413902,104.106445 121.784178,104.182616 122.114258,104.334961 C122.444338,104.487305 122.692952,104.681965 122.860107,104.918945 C123.027263,105.155926 123.14152,105.418293 123.202881,105.706055 C123.264242,105.993817 123.294922,106.440264 123.294922,107.04541 L123.294922,111 L121.51123,111 L121.51123,107.438965 C121.51123,106.732256 121.477377,106.283692 121.409668,106.093262 C121.341959,105.902831 121.222413,105.751547 121.051025,105.639404 C120.879638,105.527262 120.664878,105.471191 120.406738,105.471191 C120.110513,105.471191 119.84603,105.543131 119.613281,105.687012 C119.380533,105.830893 119.210206,106.047769 119.102295,106.337646 C118.994384,106.627524 118.94043,107.055987 118.94043,107.623047 L118.94043,111 L117.156738,111 L117.156738,101.694336 L118.94043,101.694336 Z M125.104004,103.344727 L125.104004,101.694336 L126.887695,101.694336 L126.887695,103.344727 L125.104004,103.344727 Z M125.104004,111 L125.104004,104.258789 L126.887695,104.258789 L126.887695,111 L125.104004,111 Z M128.71582,111 L128.71582,101.694336 L130.499512,101.694336 L130.499512,111 L128.71582,111 Z M138.510254,111 L136.853516,111 L136.853516,110.009766 C136.578449,110.394859 136.253664,110.681558 135.87915,110.869873 C135.504637,111.058188 135.126955,111.152344 134.746094,111.152344 C133.971676,111.152344 133.308352,110.840254 132.756104,110.216064 C132.203855,109.591875 131.927734,108.721197 131.927734,107.604004 C131.927734,106.46142 132.196449,105.592858 132.733887,104.998291 C133.271324,104.403724 133.950517,104.106445 134.771484,104.106445 C135.524743,104.106445 136.17643,104.419593 136.726562,105.045898 L136.726562,101.694336 L138.510254,101.694336 L138.510254,111 Z M133.749512,107.483398 C133.749512,108.202803 133.848957,108.723306 134.047852,109.044922 C134.335613,109.510419 134.737628,109.743164 135.253906,109.743164 C135.66439,109.743164 136.013508,109.568605 136.30127,109.219482 C136.589031,108.87036 136.73291,108.348799 136.73291,107.654785 C136.73291,106.880367 136.593263,106.322837 136.313965,105.982178 C136.034667,105.641518 135.677086,105.471191 135.241211,105.471191 C134.818032,105.471191 134.463624,105.639403 134.177979,105.97583 C133.892333,106.312258 133.749512,106.814775 133.749512,107.483398 Z" id="child-copy" fill="#004B93"></path>
        </g>
    </g>
</svg>