<?xml version="1.0" encoding="UTF-8"?>
<svg width="145px" height="77px" viewBox="0 0 145 77" version="1.1" xmlns="http://www.w3.org/2000/svg" xmlns:xlink="http://www.w3.org/1999/xlink">
    <!-- Generator: Sketch 52.3 (67297) - http://www.bohemiancoding.com/sketch -->
    <title>one-to-one</title>
    <desc>Created with Sketch.</desc>
    <g id="Page-1" stroke="none" stroke-width="1" fill="none" fill-rule="evenodd">
        <g id="Group-3">
            <path id="Line-2" d="M105.5,36.5 L34,36.5 L33.5,36.5 L33.5,35.5 L34,35.5 L105.5,35.5 L105.5,31.5 L114.5,36 L105.5,40.5 L105.5,36.5 Z" fill="#979797" fill-rule="nonzero"></path>
            <circle id="Oval" stroke="#BD10E0" stroke-width="3" fill="#FFFFFF" cx="24" cy="36" r="8"></circle>
            <circle id="Oval-Copy" stroke="#BD10E0" stroke-width="3" fill="#FFFFFF" cx="124" cy="36" r="8"></circle>
            <path d="M4.88232422,61.2587891 L6.54541016,61.2587891 L6.54541016,62.2490234 C6.76123155,61.9104801 7.05322082,61.6354177 7.42138672,61.4238281 C7.78955262,61.2122385 8.19791442,61.1064453 8.64648438,61.1064453 C9.42936589,61.1064453 10.0937473,61.4132456 10.6396484,62.0268555 C11.1855496,62.6404653 11.4584961,63.4952745 11.4584961,64.5913086 C11.4584961,65.7169653 11.1834337,66.5918751 10.6333008,67.2160645 C10.0831678,67.8402538 9.41667058,68.1523438 8.63378906,68.1523438 C8.26139137,68.1523438 7.92391102,68.0782885 7.62133789,67.9301758 C7.31876476,67.7820631 7.00032719,67.5281594 6.66601562,67.168457 L6.66601562,70.5644531 L4.88232422,70.5644531 L4.88232422,61.2587891 Z M6.64697266,64.5151367 C6.64697266,65.2726275 6.79719902,65.8322736 7.09765625,66.1940918 C7.39811348,66.55591 7.764158,66.7368164 8.19580078,66.7368164 C8.6105164,66.7368164 8.95540227,66.5707211 9.23046875,66.2385254 C9.50553523,65.9063297 9.64306641,65.3614947 9.64306641,64.6040039 C9.64306641,63.8972946 9.5013035,63.3725603 9.21777344,63.0297852 C8.93424337,62.68701 8.58300991,62.515625 8.1640625,62.515625 C7.72818792,62.515625 7.36637514,62.6838362 7.07861328,63.0202637 C6.79085143,63.3566911 6.64697266,63.8549772 6.64697266,64.5151367 Z M14.2070312,63.3154297 L12.5883789,63.0234375 C12.770346,62.3717415 13.0834939,61.8893245 13.527832,61.5761719 C13.9721702,61.2630193 14.6323198,61.1064453 15.5083008,61.1064453 C16.3038777,61.1064453 16.8963197,61.2006013 17.2856445,61.388916 C17.6749694,61.5772308 17.9489738,61.8163234 18.107666,62.1062012 C18.2663582,62.3960789 18.3457031,62.9282188 18.3457031,63.7026367 L18.3266602,65.784668 C18.3266602,66.3771188 18.3552243,66.8140448 18.4123535,67.095459 C18.4694827,67.3768732 18.5763339,67.6783838 18.7329102,68 L16.9682617,68 C16.921712,67.8815098 16.8645837,67.7058931 16.796875,67.4731445 C16.7672525,67.3673497 16.7460938,67.2975262 16.7333984,67.2636719 C16.4287094,67.5598973 16.1028663,67.7820631 15.7558594,67.9301758 C15.4088524,68.0782885 15.0385762,68.1523438 14.6450195,68.1523438 C13.9510056,68.1523438 13.4040547,67.9640318 13.0041504,67.5874023 C12.604246,67.2107729 12.4042969,66.7347034 12.4042969,66.1591797 C12.4042969,65.7783184 12.495279,65.4387222 12.6772461,65.1403809 C12.8592131,64.8420395 13.1141748,64.6135262 13.4421387,64.454834 C13.7701026,64.2961418 14.2429982,64.1575527 14.8608398,64.0390625 C15.6945029,63.8824862 16.2721338,63.7364916 16.59375,63.6010742 L16.59375,63.4233398 C16.59375,63.0805647 16.5091154,62.8361824 16.3398438,62.6901855 C16.1705721,62.5441887 15.8510766,62.4711914 15.3813477,62.4711914 C15.0639633,62.4711914 14.8164071,62.5336094 14.6386719,62.6584473 C14.4609366,62.7832851 14.3170578,63.0022771 14.2070312,63.3154297 Z M16.59375,64.7626953 C16.3652332,64.8388676 16.0034204,64.9298497 15.5083008,65.0356445 C15.0131811,65.1414393 14.6894539,65.2451167 14.5371094,65.3466797 C14.3043608,65.5117196 14.1879883,65.7211901 14.1879883,65.9750977 C14.1879883,66.2247734 14.2810863,66.4405915 14.4672852,66.6225586 C14.653484,66.8045256 14.8904608,66.8955078 15.1782227,66.8955078 C15.4998388,66.8955078 15.8066392,66.7897146 16.0986328,66.578125 C16.3144542,66.4173169 16.4562171,66.2205415 16.5239258,65.987793 C16.5704755,65.8354485 16.59375,65.5455751 16.59375,65.1181641 L16.59375,64.7626953 Z M21.8115234,68 L20.027832,68 L20.027832,61.2587891 L21.6845703,61.2587891 L21.6845703,62.2172852 C21.9681004,61.7644834 22.223062,61.4661466 22.4494629,61.3222656 C22.6758638,61.1783847 22.9329413,61.1064453 23.2207031,61.1064453 C23.6269552,61.1064453 24.01839,61.2185861 24.3950195,61.4428711 L23.8427734,62.9980469 C23.5423162,62.8033844 23.2630221,62.7060547 23.0048828,62.7060547 C22.7552071,62.7060547 22.5436207,62.7748203 22.3701172,62.9123535 C22.1966137,63.0498868 22.0601405,63.2985008 21.9606934,63.6582031 C21.8612462,64.0179054 21.8115234,64.7711531 21.8115234,65.9179688 L21.8115234,68 Z M29.0668945,65.8544922 L30.8442383,66.152832 C30.6157215,66.804528 30.2549667,67.3006982 29.7619629,67.6413574 C29.2689591,67.9820167 28.6521847,68.1523438 27.9116211,68.1523438 C26.7394147,68.1523438 25.8719104,67.7693723 25.309082,67.003418 C24.8647439,66.3898081 24.6425781,65.6154018 24.6425781,64.6801758 C24.6425781,63.5629827 24.9345674,62.6880728 25.5185547,62.0554199 C26.102542,61.422767 26.8409786,61.1064453 27.7338867,61.1064453 C28.7368214,61.1064453 29.5281547,61.4375781 30.1079102,62.0998535 C30.6876657,62.762129 30.9648439,63.7766859 30.9394531,65.1435547 L26.4707031,65.1435547 C26.4833985,65.6725287 26.6272773,66.0840643 26.9023438,66.3781738 C27.1774102,66.6722834 27.5201802,66.8193359 27.9306641,66.8193359 C28.2099623,66.8193359 28.4448233,66.7431648 28.6352539,66.5908203 C28.8256845,66.4384758 28.9695633,66.1930355 29.0668945,65.8544922 Z M29.168457,64.0517578 C29.1557617,63.5354792 29.0224622,63.1429864 28.7685547,62.8742676 C28.5146472,62.6055488 28.205731,62.4711914 27.8417969,62.4711914 C27.452472,62.4711914 27.1308606,62.6129543 26.8769531,62.8964844 C26.6230456,63.1800144 26.4982096,63.5651017 26.5024414,64.0517578 L29.168457,64.0517578 Z M38.5249023,68 L36.7412109,68 L36.7412109,64.5595703 C36.7412109,63.8317021 36.7031254,63.3609223 36.6269531,63.1472168 C36.5507809,62.9335113 36.4270028,62.767416 36.2556152,62.6489258 C36.0842277,62.5304356 35.8779309,62.4711914 35.6367188,62.4711914 C35.3277979,62.4711914 35.0506197,62.555826 34.8051758,62.7250977 C34.5597318,62.8943693 34.3915206,63.1186509 34.3005371,63.3979492 C34.2095536,63.6772475 34.1640625,64.1935184 34.1640625,64.9467773 L34.1640625,68 L32.3803711,68 L32.3803711,61.2587891 L34.0371094,61.2587891 L34.0371094,62.2490234 C34.6253285,61.4873009 35.365881,61.1064453 36.2587891,61.1064453 C36.6523457,61.1064453 37.0120426,61.1773268 37.3378906,61.3190918 C37.6637386,61.4608568 37.9102368,61.6417632 38.0773926,61.8618164 C38.2445484,62.0818696 38.3609209,62.3315416 38.4265137,62.6108398 C38.4921064,62.8901381 38.5249023,63.2900365 38.5249023,63.8105469 L38.5249023,68 Z M43.425293,61.2587891 L43.425293,62.6806641 L42.206543,62.6806641 L42.206543,65.3974609 C42.206543,65.9475939 42.2181802,66.2681473 42.2414551,66.3591309 C42.2647299,66.4501144 42.3176265,66.5252276 42.4001465,66.5844727 C42.4826664,66.6437177 42.58317,66.6733398 42.7016602,66.6733398 C42.8667,66.6733398 43.1057927,66.6162115 43.4189453,66.5019531 L43.5712891,67.8857422 C43.1565734,68.0634775 42.6868516,68.1523438 42.1621094,68.1523438 C41.8404932,68.1523438 41.5506198,68.0983892 41.2924805,67.9904785 C41.0343412,67.8825678 40.8449713,67.7429208 40.7243652,67.5715332 C40.6037592,67.4001456 40.5201825,67.1684585 40.4736328,66.8764648 C40.4355467,66.669107 40.4165039,66.2501659 40.4165039,65.6196289 L40.4165039,62.6806641 L39.5976562,62.6806641 L39.5976562,61.2587891 L40.4165039,61.2587891 L40.4165039,59.9194336 L42.206543,58.878418 L42.206543,61.2587891 L43.425293,61.2587891 Z" id="parent" fill="#004B93"></path>
            <path d="M14.640625,13 L12.8569336,13 L12.8569336,6.25878906 L14.5136719,6.25878906 L14.5136719,7.21728516 C14.7972019,6.76448341 15.0521636,6.46614655 15.2785645,6.32226562 C15.5049653,6.1783847 15.7620428,6.10644531 16.0498047,6.10644531 C16.4560567,6.10644531 16.8474916,6.21858612 17.2241211,6.44287109 L16.671875,7.99804688 C16.3714178,7.80338444 16.0921237,7.70605469 15.8339844,7.70605469 C15.5843086,7.70605469 15.3727222,7.77482028 15.1992188,7.91235352 C15.0257153,8.04988676 14.889242,8.29850081 14.7897949,8.65820312 C14.6903478,9.01790544 14.640625,9.77115312 14.640625,10.9179688 L14.640625,13 Z M17.5795898,9.53417969 C17.5795898,8.94172881 17.7255845,8.36832959 18.0175781,7.81396484 C18.3095718,7.25960009 18.7232232,6.83642724 19.2585449,6.54443359 C19.7938666,6.25243995 20.3915983,6.10644531 21.0517578,6.10644531 C22.0716197,6.10644531 22.9073861,6.43757807 23.559082,7.09985352 C24.210778,7.76212896 24.5366211,8.59895328 24.5366211,9.61035156 C24.5366211,10.6302134 24.2076042,11.4755012 23.5495605,12.1462402 C22.8915169,12.8169793 22.063156,13.1523438 21.0644531,13.1523438 C20.4466115,13.1523438 19.8573433,13.0126967 19.2966309,12.7333984 C18.7359184,12.4541002 18.3095718,12.0446804 18.0175781,11.505127 C17.7255845,10.9655735 17.5795898,10.3085976 17.5795898,9.53417969 Z M19.4077148,9.62939453 C19.4077148,10.2980177 19.5664047,10.8100568 19.8837891,11.1655273 C20.2011735,11.5209979 20.5926083,11.6987305 21.0581055,11.6987305 C21.5236026,11.6987305 21.9139795,11.5209979 22.229248,11.1655273 C22.5445166,10.8100568 22.7021484,10.2937859 22.7021484,9.61669922 C22.7021484,8.95653967 22.5445166,8.44873225 22.229248,8.09326172 C21.9139795,7.73779119 21.5236026,7.56005859 21.0581055,7.56005859 C20.5926083,7.56005859 20.2011735,7.73779119 19.8837891,8.09326172 C19.5664047,8.44873225 19.4077148,8.9607714 19.4077148,9.62939453 Z M27.1899414,13 L25.0571289,6.25878906 L26.7900391,6.25878906 L28.0532227,10.6767578 L29.2148438,6.25878906 L30.9350586,6.25878906 L32.0585938,10.6767578 L33.347168,6.25878906 L35.1054688,6.25878906 L32.940918,13 L31.2270508,13 L30.0654297,8.66455078 L28.9228516,13 L27.1899414,13 Z" id="row" fill="#004B93"></path>
            <path d="M114.640625,13 L112.856934,13 L112.856934,6.25878906 L114.513672,6.25878906 L114.513672,7.21728516 C114.797202,6.76448341 115.052164,6.46614655 115.278564,6.32226562 C115.504965,6.1783847 115.762043,6.10644531 116.049805,6.10644531 C116.456057,6.10644531 116.847492,6.21858612 117.224121,6.44287109 L116.671875,7.99804688 C116.371418,7.80338444 116.092124,7.70605469 115.833984,7.70605469 C115.584309,7.70605469 115.372722,7.77482028 115.199219,7.91235352 C115.025715,8.04988676 114.889242,8.29850081 114.789795,8.65820312 C114.690348,9.01790544 114.640625,9.77115312 114.640625,10.9179688 L114.640625,13 Z M117.57959,9.53417969 C117.57959,8.94172881 117.725584,8.36832959 118.017578,7.81396484 C118.309572,7.25960009 118.723223,6.83642724 119.258545,6.54443359 C119.793867,6.25243995 120.391598,6.10644531 121.051758,6.10644531 C122.07162,6.10644531 122.907386,6.43757807 123.559082,7.09985352 C124.210778,7.76212896 124.536621,8.59895328 124.536621,9.61035156 C124.536621,10.6302134 124.207604,11.4755012 123.549561,12.1462402 C122.891517,12.8169793 122.063156,13.1523438 121.064453,13.1523438 C120.446611,13.1523438 119.857343,13.0126967 119.296631,12.7333984 C118.735918,12.4541002 118.309572,12.0446804 118.017578,11.505127 C117.725584,10.9655735 117.57959,10.3085976 117.57959,9.53417969 Z M119.407715,9.62939453 C119.407715,10.2980177 119.566405,10.8100568 119.883789,11.1655273 C120.201173,11.5209979 120.592608,11.6987305 121.058105,11.6987305 C121.523603,11.6987305 121.91398,11.5209979 122.229248,11.1655273 C122.544517,10.8100568 122.702148,10.2937859 122.702148,9.61669922 C122.702148,8.95653967 122.544517,8.44873225 122.229248,8.09326172 C121.91398,7.73779119 121.523603,7.56005859 121.058105,7.56005859 C120.592608,7.56005859 120.201173,7.73779119 119.883789,8.09326172 C119.566405,8.44873225 119.407715,8.9607714 119.407715,9.62939453 Z M127.189941,13 L125.057129,6.25878906 L126.790039,6.25878906 L128.053223,10.6767578 L129.214844,6.25878906 L130.935059,6.25878906 L132.058594,10.6767578 L133.347168,6.25878906 L135.105469,6.25878906 L132.940918,13 L131.227051,13 L130.06543,8.66455078 L128.922852,13 L127.189941,13 Z" id="row-copy" fill="#004B93"></path>
            <path d="M115.811035,63.2519531 L114.052734,63.5693359 C113.993489,63.2180972 113.859132,62.9536142 113.649658,62.7758789 C113.440184,62.5981436 113.168296,62.5092773 112.833984,62.5092773 C112.389646,62.5092773 112.035239,62.6626775 111.770752,62.9694824 C111.506265,63.2762873 111.374023,63.7893844 111.374023,64.5087891 C111.374023,65.3085977 111.508381,65.8735335 111.7771,66.2036133 C112.045818,66.5336931 112.406573,66.6987305 112.859375,66.6987305 C113.197918,66.6987305 113.475097,66.6024586 113.690918,66.4099121 C113.906739,66.2173656 114.059082,65.8862328 114.147949,65.4165039 L115.899902,65.7148438 C115.717935,66.5188842 115.368818,67.1261373 114.852539,67.5366211 C114.33626,67.9471049 113.644373,68.1523438 112.776855,68.1523438 C111.790848,68.1523438 111.004804,67.8413117 110.418701,67.2192383 C109.832598,66.5971649 109.539551,65.7360081 109.539551,64.6357422 C109.539551,63.5227809 109.833656,62.6563345 110.421875,62.036377 C111.010094,61.4164194 111.805659,61.1064453 112.808594,61.1064453 C113.629561,61.1064453 114.282306,61.28312 114.766846,61.6364746 C115.251386,61.9898292 115.599446,62.5283167 115.811035,63.2519531 Z M118.94043,58.6943359 L118.94043,62.1157227 C119.515953,61.4428677 120.203609,61.1064453 121.003418,61.1064453 C121.413902,61.1064453 121.784178,61.1826164 122.114258,61.3349609 C122.444338,61.4873054 122.692952,61.681965 122.860107,61.9189453 C123.027263,62.1559257 123.14152,62.4182928 123.202881,62.7060547 C123.264242,62.9938165 123.294922,63.4402639 123.294922,64.0454102 L123.294922,68 L121.51123,68 L121.51123,64.4389648 C121.51123,63.7322556 121.477377,63.2836924 121.409668,63.0932617 C121.341959,62.9028311 121.222413,62.7515468 121.051025,62.6394043 C120.879638,62.5272618 120.664878,62.4711914 120.406738,62.4711914 C120.110513,62.4711914 119.84603,62.5431308 119.613281,62.6870117 C119.380533,62.8308926 119.210206,63.0477687 119.102295,63.3376465 C118.994384,63.6275242 118.94043,64.0559867 118.94043,64.6230469 L118.94043,68 L117.156738,68 L117.156738,58.6943359 L118.94043,58.6943359 Z M125.104004,60.3447266 L125.104004,58.6943359 L126.887695,58.6943359 L126.887695,60.3447266 L125.104004,60.3447266 Z M125.104004,68 L125.104004,61.2587891 L126.887695,61.2587891 L126.887695,68 L125.104004,68 Z M128.71582,68 L128.71582,58.6943359 L130.499512,58.6943359 L130.499512,68 L128.71582,68 Z M138.510254,68 L136.853516,68 L136.853516,67.0097656 C136.578449,67.3948587 136.253664,67.6815583 135.87915,67.869873 C135.504637,68.0581878 135.126955,68.1523438 134.746094,68.1523438 C133.971676,68.1523438 133.308352,67.8402538 132.756104,67.2160645 C132.203855,66.5918751 131.927734,65.721197 131.927734,64.6040039 C131.927734,63.4614201 132.196449,62.5928578 132.733887,61.998291 C133.271324,61.4037242 133.950517,61.1064453 134.771484,61.1064453 C135.524743,61.1064453 136.17643,61.4195932 136.726562,62.0458984 L136.726562,58.6943359 L138.510254,58.6943359 L138.510254,68 Z M133.749512,64.4833984 C133.749512,65.2028031 133.848957,65.7233057 134.047852,66.0449219 C134.335613,66.510419 134.737628,66.7431641 135.253906,66.7431641 C135.66439,66.7431641 136.013508,66.5686053 136.30127,66.2194824 C136.589031,65.8703596 136.73291,65.348799 136.73291,64.6547852 C136.73291,63.8803672 136.593263,63.322837 136.313965,62.9821777 C136.034667,62.6415185 135.677086,62.4711914 135.241211,62.4711914 C134.818032,62.4711914 134.463624,62.6394026 134.177979,62.9758301 C133.892333,63.3122575 133.749512,63.8147753 133.749512,64.4833984 Z" id="child" fill="#004B93"></path>
        </g>
    </g>
</svg>